<svg id="Ebene_1" data-name="Ebene 1" xmlns="http://www.w3.org/2000/svg" viewBox="0 0 197.2 43.12"><title>framen_logo_black</title><polygon id="Fill-1" points="12.03 0 0 17.26 9.56 24.26 11.36 22.24 3.87 16.76 12.69 4.1 32.97 18.97 24.14 31.63 16.11 25.67 14.31 27.69 24.76 35.42 36.78 18.16 12.03 0"/><polygon id="Fill-2" points="26.01 8.29 28.23 9.89 31.2 6.62 43.35 17.79 23.87 39.2 11.72 28.03 24.27 14.24 22.05 12.64 7.87 28.23 24.07 43.12 47.43 17.45 31.22 2.56 26.01 8.29"/><path d="M57.49,35.42V13.87H71.73V16.3H60.22v7.19h9.69v2.28H60.22v9.65Z"/><path d="M79.5,35.42V13.87h9.23a5.6,5.6,0,0,1,5.1,3.47,9.1,9.1,0,0,1,.56,5.82,5.59,5.59,0,0,1-3.66,4L96,35.42H92.86l-4.92-7.74H82.23v7.74Zm2.73-10.17h6.53a2.89,2.89,0,0,0,2.42-1.44,5.15,5.15,0,0,0,.75-3,4.49,4.49,0,0,0-.71-2.87,3,3,0,0,0-2.65-1.6H82.23Z"/><path d="M110.56,13.87h2.3l8.81,21.55h-2.91l-2.42-6.31h-9.28l-2.42,6.31h-2.92Zm5,13.11-3.81-10-3.83,10Z"/><path d="M146.08,35.42V18.75l-7.16,12.79h-1.55l-7.2-12.79V35.42h-2.73V13.87h2.88l7.81,14,7.83-14h2.85V35.42Z"/><path d="M171.22,33v2.42H156.58V13.87h14.36V16.3H159.32v7h10.11v2.28H159.32V33Z"/><path d="M181.72,19V35.42H179V13.87h2.12l13.36,16.79V13.9h2.73V35.42h-2.3Z"/></svg>